<?xml version="1.0" encoding="utf-8"?>
<!-- Generator: Adobe Illustrator 24.0.1, SVG Export Plug-In . SVG Version: 6.00 Build 0)  -->
<svg version="1.1"
	 id="svg2500" inkscape:output_extension="org.inkscape.output.svg.inkscape" inkscape:version="0.46" sodipodi:docname="Mendicant Bias.svg" sodipodi:version="0.32" xmlns:cc="http://creativecommons.org/ns#" xmlns:dc="http://purl.org/dc/elements/1.1/" xmlns:inkscape="http://www.inkscape.org/namespaces/inkscape" xmlns:rdf="http://www.w3.org/1999/02/22-rdf-syntax-ns#" xmlns:sodipodi="http://sodipodi.sourceforge.net/DTD/sodipodi-0.dtd" xmlns:svg="http://www.w3.org/2000/svg"
	 xmlns="http://www.w3.org/2000/svg" xmlns:xlink="http://www.w3.org/1999/xlink" x="0px" y="0px" viewBox="0 0 500 500"
	 style="enable-background:new 0 0 500 500;" xml:space="preserve">
<style type="text/css">
	.st0{fill:#5E72E4;}
</style>
<defs>
	
		<inkscape:perspective  id="perspective2517" inkscape:persp3d-origin="312.5 : 208.33333 : 1" inkscape:vp_x="0 : 312.5 : 1" inkscape:vp_y="0 : 1000 : 0" inkscape:vp_z="625 : 312.5 : 1" sodipodi:type="inkscape:persp3d">
		</inkscape:perspective>
</defs>
<sodipodi:namedview  bordercolor="#666666" borderopacity="1.0" gridtolerance="10.0" guidetolerance="10.0" id="base" inkscape:current-layer="svg2500" inkscape:cx="312.5" inkscape:cy="312.5" inkscape:pageopacity="0.0" inkscape:pageshadow="2" inkscape:window-height="667" inkscape:window-width="640" inkscape:window-x="44" inkscape:window-y="58" inkscape:zoom="0.7392" objecttolerance="10.0" pagecolor="#ffffff" showgrid="false">
	</sodipodi:namedview>
<path class="st0" d="M447.4,164.5c-21-47.7-60.1-87-107.6-108.3C306.4,41,269,34.6,232.5,37.8C188.4,41.6,145.6,59.3,112,88
	c-27.5,23.2-48.9,53.5-61.7,87.1c-14.6,38-18.1,80.1-9.9,120c7.4,36.6,24.6,71.1,49.4,99.1c16.5,18.8,36.5,34.7,58.5,46.6
	c45.8,25.1,100.9,32.6,151.7,20.5c37.4-8.7,72.4-27.7,100.1-54.4c27.5-26.4,47.8-60.3,58-97.1C471.5,262.2,467.7,209.8,447.4,164.5z
	 M416.3,280.9c-5.6,31.1-20.1,60.5-41.6,83.7c-1,1.2-0.6,2.9-0.8,4.4c0,5.7,0,11.5,0,17.2c-33.1,30.5-78.1,47.3-123,46.9
	c-44.9,0.4-90-16.4-123.1-46.9c0.2-6.4,0.1-12.8,0.1-19.1c0.1-2.4-2.2-3.7-3.5-5.4C101.9,335.8,87.6,303,84,269
	c-5.3-47.1,10.7-96.3,42.9-131.1c1.4-1.2,1-3.3,1.1-4.9c-0.1-5.4,0-10.8,0-16.1c23.4-21.5,52.9-36.3,83.9-42.9
	c35.9-7.4,74-4.6,108,9.1c19.8,8,38.4,19.3,54,33.8c0.2,6.6-0.4,13.4,0.3,20c12.3,13.5,22.7,28.9,30.1,45.7
	C418.2,213.1,422.4,247.9,416.3,280.9z"/>
<path id="path2508" class="st0" d="M207.1,180c29.6,0,59.2,0,88.9,0c14.6,26.1,28.5,52.6,42.6,79c-6.2,11-12.3,22-18.5,33
	c-15.4,0-30.7,0-46.1,0c-7.8,13.9-15.2,28-22.7,42c-14.7,0-29.4,0-44.1,0c-14.6-24.8-28.5-49.9-42.6-75
	C178.6,232.6,192.5,206.1,207.1,180z"/>
<path id="path2510" class="st0" d="M277.4,299.2c12.5-0.2,25.1-0.1,37.6-0.1c5.8,11,12,21.9,17.6,33.1l0.1,0.7
	c-5.8,10.4-11.5,20.9-17.7,31c-12.6,0.2-25.2,0.1-37.8,0c-6-10.3-11.6-20.9-17.8-31.1C265.3,321.5,271.4,310.4,277.4,299.2z"/>
</svg>
